<svg width="135" height="48" viewBox="0 0 135 48" fill="none" xmlns="http://www.w3.org/2000/svg">
<path d="M21.4439 23.5176L21.1578 27.1966L12.6723 27.1296L13.3406 11.65L18.0127 12.2925L18.3827 7.98837L2.53438 6.35498L2.16181 10.689L6.33542 10.4757L5.47213 27.1731L1.35668 27.0602L1.08431 30.2285L20.7997 31.7126L20.7627 32.4923L26.113 32.9522L27.6227 23.4466L21.4439 23.5176Z" fill="#EB333D"/>
<path d="M41.5301 14.7549C38.0531 14.4174 35.0104 14.9191 32.4019 16.26C29.8068 17.6022 28.4003 19.3947 28.1826 21.6374C27.9649 23.8802 29.0003 25.9098 31.2888 27.7261C33.5906 29.5436 36.48 30.6212 39.957 30.9587C43.4208 31.295 46.4568 30.7927 49.0653 29.4518C51.6737 28.1109 53.0868 26.319 53.3045 24.0762C53.5222 21.8334 52.4802 19.8032 50.1784 17.9857C47.8766 16.1681 44.9938 15.0912 41.5301 14.7549ZM40.2218 28.2316C37.979 28.0138 36.1122 27.3035 34.6215 26.1005C33.144 24.8988 32.4774 23.5547 32.6217 22.0684C32.766 20.582 33.6787 19.3913 35.3597 18.4962C37.054 17.6024 39.0225 17.2644 41.2653 17.4821C43.5081 17.6998 45.3682 18.4095 46.8457 19.6113C48.3364 20.8143 49.0097 22.1589 48.8654 23.6453C48.7211 25.1316 47.8018 26.3217 46.1075 27.2155C44.4265 28.1106 42.4646 28.4493 40.2218 28.2316Z" fill="#EB333D"/>
<path d="M77.14 21.68L77.36 18.94L64.34 19.18V21.68L68.24 21.46V22.82C67.1067 23.38 65.8733 23.66 64.54 23.66C62.6467 23.66 61.0267 23.1533 59.68 22.14C58.3467 21.1133 57.68 19.8733 57.68 18.42C57.68 16.98 58.3467 15.7533 59.68 14.74C61.0267 13.7133 62.6467 13.2 64.54 13.2C66.2867 13.2 67.8133 13.6533 69.12 14.56L68.2 15.84L70.02 17.48L75.66 10.62L72.92 9.26L71.08 11.84C69.1067 10.8667 66.9267 10.38 64.54 10.38C61.38 10.38 58.68 11.1667 56.44 12.74C54.2133 14.3133 53.1 16.2067 53.1 18.42C53.1 20.6867 54.0867 22.5867 56.06 24.12C58.0867 25.6933 60.6533 26.48 63.76 26.48C65.24 26.48 66.7333 26.2 68.24 25.64V26.78H64.34V29.28L76.5 29.52V27L72.58 26.78L73.02 21.9L77.14 21.68Z" fill="#EB333D"/>
<path d="M88.032 13.414L92.564 13.15L92.806 10.158L78.484 10.4V13.15L82.774 12.908V25.184H78.484V27.934L91.838 28.176V25.426L87.548 25.184L88.032 13.414Z" fill="#EB333D"/>
<path d="M115.551 24.986L115.597 14.475L111.48 14.222V11.347L124.337 11.6V14.475H120.197L120.082 28.896L113.067 29.287L103.177 18.316L102.717 27.056L106.834 27.309V30.184L94 29.931V27.056H98.117V16.453L94 16.706V13.831L104.879 13.578L115.551 24.986Z" fill="#EB333D"/>
<path d="M78.8828 41.8203V38.1953H79.8203C80.0807 39.2786 80.4714 40.0521 80.9922 40.5156C81.513 40.9792 82.0755 41.2109 82.6797 41.2109C83.1276 41.2109 83.4844 41.0781 83.75 40.8125C84.0156 40.5469 84.1484 40.2344 84.1484 39.875C84.1484 39.6198 84.0651 39.3646 83.8984 39.1094C83.7318 38.8542 83.3359 38.5703 82.7109 38.2578C81.5078 37.6589 80.6953 37.2214 80.2734 36.9453C79.8516 36.6641 79.513 36.3047 79.2578 35.8672C79.0026 35.4297 78.875 34.9271 78.875 34.3594C78.875 33.4479 79.2005 32.6979 79.8516 32.1094C80.5078 31.5156 81.2656 31.2188 82.125 31.2188C83.026 31.2188 83.7917 31.5208 84.4219 32.125C84.526 31.9688 84.612 31.7292 84.6797 31.4062H85.5781V34.5312H84.7031C84.5469 33.8385 84.25 33.2682 83.8125 32.8203C83.375 32.3724 82.8828 32.1484 82.3359 32.1484C81.9245 32.1484 81.5964 32.263 81.3516 32.4922C81.112 32.7214 80.9922 33.0078 80.9922 33.3516C80.9922 33.6172 81.0703 33.8646 81.2266 34.0938C81.3828 34.3177 81.5938 34.5052 81.8594 34.6562C82.125 34.8021 82.6875 35.0755 83.5469 35.4766C84.3177 35.8411 84.888 36.1667 85.2578 36.4531C85.6276 36.7396 85.9193 37.1016 86.1328 37.5391C86.3516 37.9714 86.4609 38.4401 86.4609 38.9453C86.4609 39.8828 86.1146 40.6641 85.4219 41.2891C84.7292 41.9089 83.9037 42.2188 82.9453 42.2188C82.3984 42.2188 81.862 42.1042 81.3359 41.875C80.8151 41.6458 80.3984 41.3411 80.0859 40.9609C79.9662 41.1953 79.8776 41.4818 79.8203 41.8203H78.8828ZM87.3428 34.0972V33.3926H91.8941V34.0972H91.7607C91.3333 34.0972 91.054 34.1776 90.9229 34.3384C90.7959 34.495 90.7324 34.7658 90.7324 35.1509V40.2417C90.7324 40.6353 90.798 40.9103 90.9292 41.0669C91.0646 41.2192 91.3418 41.2954 91.7607 41.2954H91.8941V42H87.3428V41.2954C87.7998 41.2954 88.1024 41.2256 88.2505 41.0859C88.4028 40.9463 88.479 40.6649 88.479 40.2417V35.1509C88.479 34.7404 88.4071 34.4632 88.2632 34.3193C88.1235 34.1712 87.8167 34.0972 87.3428 34.0972ZM98.2734 38.7246V38.0264H102.304V38.7246C101.983 38.7796 101.773 38.8748 101.676 39.0103C101.578 39.1414 101.53 39.4165 101.53 39.8354V41.6382C101.394 41.6297 101.284 41.6255 101.2 41.6255C100.781 41.6255 100.072 41.7334 99.0732 41.9492C98.3581 42.1016 97.7593 42.1777 97.2769 42.1777C95.9692 42.1777 94.9113 41.7419 94.103 40.8701C93.2948 39.9941 92.8906 38.9743 92.8906 37.8105C92.8906 36.5622 93.3159 35.4894 94.1665 34.5923C95.0213 33.6909 96.0793 33.2402 97.3403 33.2402C98.3687 33.2402 99.2721 33.5682 100.051 34.2241C100.186 33.9448 100.269 33.6465 100.298 33.3291H100.978L101.054 36.3379H100.362C99.926 34.8737 99.0754 34.1416 97.8101 34.1416C97.0568 34.1416 96.4813 34.4188 96.0835 34.9731C95.6899 35.5275 95.4932 36.4585 95.4932 37.7661C95.4932 38.6844 95.5503 39.3826 95.6646 39.8608C95.783 40.339 96.0073 40.7093 96.3374 40.9717C96.6717 41.234 97.1034 41.3652 97.6323 41.3652C98.1021 41.3652 98.4914 41.2637 98.8003 41.0605C99.1092 40.8574 99.2637 40.4575 99.2637 39.8608V39.5435C99.2637 39.0399 98.9336 38.7669 98.2734 38.7246ZM104.919 35.8428V39.7974C104.919 40.4321 105.034 40.8405 105.262 41.0225C105.495 41.2044 105.791 41.2954 106.151 41.2954V42H102.92V41.2954C103.195 41.2954 103.434 41.2298 103.637 41.0986C103.84 40.9632 103.969 40.8088 104.024 40.6353C104.079 40.4575 104.107 40.1803 104.107 39.8037V35.4111C104.107 34.5352 103.696 34.0972 102.875 34.0972V33.3926H105.783L110.499 38.6611V35.5063C110.499 34.5669 110.103 34.0972 109.312 34.0972V33.3926H112.403V34.0972C112.188 34.0972 111.984 34.1564 111.794 34.2749C111.608 34.3934 111.481 34.5457 111.413 34.7319C111.345 34.9139 111.312 35.1805 111.312 35.5317V42.1396H110.499L104.919 35.8428ZM116.326 34.0972V33.3926H120.877V34.0972H120.744C120.317 34.0972 120.037 34.1776 119.906 34.3384C119.779 34.495 119.716 34.7658 119.716 35.1509V40.2417C119.716 40.6353 119.781 40.9103 119.913 41.0669C120.048 41.2192 120.325 41.2954 120.744 41.2954H120.877V42H116.326V41.2954C116.783 41.2954 117.086 41.2256 117.234 41.0859C117.386 40.9463 117.462 40.6649 117.462 40.2417V35.1509C117.462 34.7404 117.39 34.4632 117.247 34.3193C117.107 34.1712 116.8 34.0972 116.326 34.0972ZM123.607 35.8428V39.7974C123.607 40.4321 123.721 40.8405 123.95 41.0225C124.182 41.2044 124.479 41.2954 124.838 41.2954V42H121.607V41.2954C121.882 41.2954 122.122 41.2298 122.325 41.0986C122.528 40.9632 122.657 40.8088 122.712 40.6353C122.767 40.4575 122.794 40.1803 122.794 39.8037V35.4111C122.794 34.5352 122.384 34.0972 121.563 34.0972V33.3926H124.47L129.187 38.6611V35.5063C129.187 34.5669 128.791 34.0972 128 34.0972V33.3926H131.091V34.0972C130.875 34.0972 130.672 34.1564 130.481 34.2749C130.295 34.3934 130.168 34.5457 130.101 34.7319C130.033 34.9139 129.999 35.1805 129.999 35.5317V42.1396H129.187L123.607 35.8428Z" fill="#EB333D"/>
<path d="M134.134 8.49359L127.194 7.07493L124.289 23.7018L127.576 24.5347L134.134 8.49359ZM123.047 29.6573L127.05 30.2713L127.562 26.9353L123.265 25.9223L123.047 29.6573Z" fill="#EB333D"/>
</svg>
