<svg width="22" height="17" viewBox="0 0 22 17" fill="none" xmlns="http://www.w3.org/2000/svg">
<path d="M6.84436 10.4639H4.59826L5.10363 7.16211H7.34973L6.84436 10.4639ZM5.96838 17H7.76525L8.484 11.9912H10.7526V10.4639H8.64123L9.1466 7.16211H11.4264V5.63477H9.30383L10.0226 0.625977H8.2257L7.51818 5.63477H5.26086L5.96838 0.625977H4.18273L3.46398 5.63477H1.19543V7.16211H3.30676L2.80139 10.4639H0.521602V11.9912H2.64416L1.92541 17H3.72229L4.4298 11.9912H6.68713L5.96838 17ZM18.9535 3.10791V17H21.3007V0.625977H18.9535L16.6288 2.32178V4.81494L18.9535 3.10791Z" fill="white"/>
</svg>
