<svg width="25" height="17" viewBox="0 0 25 17" fill="none" xmlns="http://www.w3.org/2000/svg">
<path d="M6.67186 10.4639H4.42576L4.93113 7.16211H7.17723L6.67186 10.4639ZM5.79588 17H7.59275L8.3115 11.9912H10.5801V10.4639H8.46873L8.9741 7.16211H11.2539V5.63477H9.13133L9.85008 0.625977H8.0532L7.34568 5.63477H5.08836L5.79588 0.625977H4.01023L3.29148 5.63477H1.02293V7.16211H3.13426L2.62889 10.4639H0.349102V11.9912H2.47166L1.75291 17H3.54979L4.25731 11.9912H6.51463L5.79588 17ZM15.4087 17H24.7412V14.6528H18.4859L23.7529 8.04932C24.4118 7.21077 24.7412 6.25244 24.7412 5.17432C24.7263 3.82666 24.2733 2.71484 23.3823 1.83887C22.5064 0.955404 21.3646 0.506185 19.9571 0.491211C18.6992 0.506185 17.6398 0.947917 16.7788 1.81641C15.9253 2.70736 15.4686 3.83415 15.4087 5.19678H17.7446C17.827 4.44808 18.089 3.86784 18.5308 3.45605C18.9575 3.04427 19.4929 2.83838 20.1367 2.83838C20.863 2.85335 21.4245 3.08919 21.8213 3.5459C22.2031 4.0026 22.3941 4.53792 22.3941 5.15186C22.3941 5.38395 22.3641 5.63102 22.3042 5.89307C22.2144 6.17008 22.0459 6.46956 21.7988 6.7915L15.4087 14.7876V17Z" fill="white"/>
</svg>
