<svg width="325" height="98" viewBox="0 0 325 98" fill="none" xmlns="http://www.w3.org/2000/svg">
<path d="M75.336 56.142C75.336 50.36 72.004 46.734 66.516 44.872L67.3 42.618L61.665 41.393C61.469 42.324 61.322 42.961 61.077 43.941C58.921 43.892 57.843 43.941 55.736 44.333C55.981 42.373 56.03 42.128 56.324 40.315C61.469 39.727 64.556 39.09 69.26 37.718V32.475C66.418 33.651 63.674 34.68 57.255 35.758C57.843 33.602 58.235 32.181 58.774 30.956C59.313 30.809 59.901 30.662 59.901 30.221C59.901 30.074 59.901 29.829 58.676 29.486L53.58 28.114C52.796 31.103 52.355 32.916 51.767 36.395C48.19 36.542 44.221 36.248 42.457 36.052L44.074 40.903C46.72 40.903 47.994 40.903 51.081 40.756C50.836 43.059 50.689 44.284 50.591 46.195C41.722 51.095 39.909 57.955 39.909 61.287C39.909 65.256 42.212 67.657 45.299 67.657C48.288 67.657 50.983 66.04 52.306 65.207C52.6 66.138 52.649 66.285 52.992 67.02L57.696 64.472C57.206 62.904 57.108 62.708 56.765 61.532C60.44 57.514 62.302 54.329 64.752 49.184C66.124 49.772 69.652 51.242 69.652 55.946C69.652 58.641 68.574 61.042 66.81 62.708C63.968 65.403 60.44 65.942 58.431 66.187L62.008 70.695C65.389 69.715 75.336 66.922 75.336 56.142ZM59.607 48.155C58.48 50.899 57.5 52.859 55.589 55.75C55.442 54.182 55.246 52.369 55.344 48.694C56.961 48.204 57.892 48.106 59.607 48.155ZM51.228 60.454C50.15 61.287 48.582 62.561 46.671 62.561C45.838 62.561 44.858 62.267 44.858 60.258C44.858 58.249 46.083 55.162 50.493 51.487C50.591 54.917 50.738 56.975 51.228 60.454ZM126.639 34.043C125.512 32.671 124.434 31.544 122.376 30.221L119.975 32.524C122.229 33.994 123.258 35.17 124.238 36.346L126.639 34.043ZM121.788 38.355C120.661 36.934 119.534 35.807 117.623 34.582L115.222 36.885C116.937 37.963 117.966 38.894 119.387 40.658L121.788 38.355ZM127.325 57.808C125.806 56.828 123.405 55.162 120.073 51.928C117.28 49.233 111.89 43.745 108.607 40.021C105.373 36.346 104.344 35.219 102.09 35.219C99.493 35.219 97.974 37.277 95.965 40.119C90.183 48.155 89.35 49.331 85.332 53.202L90.673 56.289C93.27 53.349 95.622 50.311 99.885 44.186C101.257 42.226 102.482 42.226 102.727 42.226C103.511 42.226 104.491 42.912 105.03 43.598C111.008 51.095 115.271 56.338 123.16 62.806L127.325 57.808ZM168.632 36.542L166.329 32.426C162.752 32.916 159.126 33.014 155.549 33.014C151.09 33.014 146.68 32.622 142.319 31.887L143.642 37.522C146.533 37.767 149.865 37.816 157.999 37.816L153.001 42.03L156.578 45.901C159.273 43.647 164.32 39.482 168.632 36.542ZM170.592 66.187L170.298 60.111C166.623 60.846 163.438 61.434 155.01 61.434C152.854 61.434 148.052 61.434 146.68 60.258C146.386 60.013 145.994 59.621 145.994 58.69C145.994 57.024 147.66 55.505 148.885 54.476L144.377 50.801C142.074 53.055 139.477 55.799 139.477 60.16C139.477 62.218 140.31 63.296 141.094 63.982C143.936 66.677 150.943 67.069 155.304 67.069C160.988 67.069 166.28 66.579 170.592 66.187ZM224.639 34.043C223.512 32.671 222.434 31.544 220.376 30.221L217.975 32.524C220.229 33.994 221.258 35.17 222.238 36.346L224.639 34.043ZM219.788 38.355C218.661 36.934 217.534 35.807 215.623 34.582L213.222 36.885C214.937 37.963 215.966 38.894 217.387 40.658L219.788 38.355ZM225.325 57.808C223.806 56.828 221.405 55.162 218.073 51.928C215.28 49.233 209.89 43.745 206.607 40.021C203.373 36.346 202.344 35.219 200.09 35.219C197.493 35.219 195.974 37.277 193.965 40.119C188.183 48.155 187.35 49.331 183.332 53.202L188.673 56.289C191.27 53.349 193.622 50.311 197.885 44.186C199.257 42.226 200.482 42.226 200.727 42.226C201.511 42.226 202.491 42.912 203.03 43.598C209.008 51.095 213.271 56.338 221.16 62.806L225.325 57.808ZM262.369 53.888V32.23H255.754V54.672C255.754 60.209 252.912 63.198 247.522 63.198C242.916 63.198 239.437 60.846 239.437 54.672V32.23H232.822V53.888C232.822 63.59 238.114 69.176 247.718 69.176C255.411 69.176 262.369 65.207 262.369 53.888ZM275.834 68V32.23H269.219V68H275.834Z" fill="white"/>
<line x1="19" y1="9.5" x2="1" y2="9.5" stroke="white"/>
<line x1="0.5" y1="37" x2="0.5" y2="9" stroke="white"/>
<line x1="306" y1="81.5" x2="324" y2="81.5" stroke="white"/>
<line x1="324.5" y1="54" x2="324.5" y2="82" stroke="white"/>
</svg>
